<?xml version='1.0' encoding='UTF-8' standalone='no'?>
<svg xmlns="http://www.w3.org/2000/svg" width="14.85911mm" height="24.883472mm" version="1.1" viewBox="0 0 52.650389 88.169784"  id="svg2" gorn="0">
    <desc >
        <referenceFile >ky-016_RGB_LED_breakout_4_300mil_breadboard.svg</referenceFile>
    </desc>
    <defs  id="defs4"/>
    <metadata  id="metadata7">
        <rdf:RDF xmlns:rdf="http://www.w3.org/1999/02/22-rdf-syntax-ns#">
            <cc:Work xmlns:cc="http://creativecommons.org/ns#" rdf:about="" xmlns:rdf="http://www.w3.org/1999/02/22-rdf-syntax-ns#">
                <dc:format xmlns:dc="http://purl.org/dc/elements/1.1/">image/svg+xml</dc:format>
                <dc:type rdf:resource="http://purl.org/dc/dcmitype/StillImage" xmlns:rdf="http://www.w3.org/1999/02/22-rdf-syntax-ns#" xmlns:dc="http://purl.org/dc/elements/1.1/"/>
                <dc:title xmlns:dc="http://purl.org/dc/elements/1.1/"/>
            </cc:Work>
        </rdf:RDF>
    </metadata>
    <g  transform="translate(-59.578387,-74.646151)">
        <g >
            <g >
                <g style="display:inline;opacity:1"  id="breadboard" gorn="0.3.0.0.0">
                    <g  transform="translate(58.732684,77.040682)">
                        <g >
                            <g >
                                <path stroke-width="0.49960631" fill="#2d2d2d" stroke="none" style="stroke-miterlimit:4;stroke-dasharray:none;"  id="rect4310" d="m 0.84570312,-2.3945312 0,66.8222652 52.65039088,0 0,-66.8222652 -52.65039088,0 z M 8.6484375,3.1191406 A 3.7707796,3.7707796 0 0 1 12.419922,6.890625 3.7707796,3.7707796 0 0 1 8.6484375,10.660156 3.7707796,3.7707796 0 0 1 4.8789062,6.890625 3.7707796,3.7707796 0 0 1 8.6484375,3.1191406 Z m 36.1054685,0 A 3.7707796,3.7707796 0 0 1 48.523438,6.890625 3.7707796,3.7707796 0 0 1 44.753906,10.660156 3.7707796,3.7707796 0 0 1 40.982422,6.890625 3.7707796,3.7707796 0 0 1 44.753906,3.1191406 Z M 17.597656,22.720703 a 1.9482363,1.9482363 0 0 1 1.947266,1.947266 1.9482363,1.9482363 0 0 1 -1.947266,1.949219 1.9482363,1.9482363 0 0 1 -1.949218,-1.949219 1.9482363,1.9482363 0 0 1 1.949218,-1.947266 z m 8.671875,0 a 1.9482363,1.9482363 0 0 1 1.949219,1.947266 1.9482363,1.9482363 0 0 1 -1.949219,1.949219 1.9482363,1.9482363 0 0 1 -1.947265,-1.949219 1.9482363,1.9482363 0 0 1 1.947265,-1.947266 z m -4.460937,8.326172 a 1.9482363,1.9482363 0 0 1 1.947265,1.949219 1.9482363,1.9482363 0 0 1 -1.947265,1.947265 1.9482363,1.9482363 0 0 1 -1.949219,-1.947265 1.9482363,1.9482363 0 0 1 1.949219,-1.949219 z m 8.671875,0 a 1.9482363,1.9482363 0 0 1 1.947265,1.949219 1.9482363,1.9482363 0 0 1 -1.947265,1.947265 1.9482363,1.9482363 0 0 1 -1.947266,-1.947265 1.9482363,1.9482363 0 0 1 1.947266,-1.949219 z M 13.076172,56.591797 a 1.944477,1.944477 0 0 1 1.943359,1.943359 1.944477,1.944477 0 0 1 -1.943359,1.945313 1.944477,1.944477 0 0 1 -1.945313,-1.945313 1.944477,1.944477 0 0 1 1.945313,-1.943359 z m 8.763672,0 a 1.944477,1.944477 0 0 1 1.945312,1.943359 1.944477,1.944477 0 0 1 -1.945312,1.945313 1.944477,1.944477 0 0 1 -1.94336,-1.945313 1.944477,1.944477 0 0 1 1.94336,-1.943359 z m 8.765625,0 a 1.944477,1.944477 0 0 1 1.945312,1.943359 1.944477,1.944477 0 0 1 -1.945312,1.945313 1.944477,1.944477 0 0 1 -1.945313,-1.945313 1.944477,1.944477 0 0 1 1.945313,-1.943359 z m 8.765625,0 a 1.944477,1.944477 0 0 1 1.943359,1.943359 1.944477,1.944477 0 0 1 -1.943359,1.945313 1.944477,1.944477 0 0 1 -1.945313,-1.945313 1.944477,1.944477 0 0 1 1.945313,-1.943359 z" stroke-opacity="1" fill-opacity="1" gorn="0.3.0.0.0.0.0.0.0"/>
                            </g>
                        </g>
                    </g>
                    <circle cx="67.381569" r="4.3337693" stroke-width="1.08899999" fill="none" stroke="#8c8c8c" style="display:inline;stroke-miterlimit:4;stroke-dasharray:none;" cy="83.930771"  id="path8375-78-6-8-4-5-4" stroke-opacity="1" fill-opacity="0" gorn="0.3.0.0.0.1"/>
                    <circle cx="103.48621" r="4.3337693" stroke-width="1.08865237" fill="none" stroke="#8c8c8c" style="display:inline;stroke-miterlimit:4;stroke-dasharray:none;" cy="83.930771"  id="path8375-78-6-8-4-5-4-8-4" stroke-opacity="1" fill-opacity="0" gorn="0.3.0.0.0.2"/>
                    <g font-size="7.5" stroke-width="1" fill="#ffffff" stroke="none" style="font-style:normal;font-variant:normal;font-weight:normal;font-stretch:normal;line-height:125%;font-family:Droid Sans;-inkscape-font-specification:Droid Sans;letter-spacing:0px;word-spacing:0px;stroke-linecap:butt;stroke-linejoin:miter;" xml:space="preserve"  id="text9045" stroke-opacity="1" fill-opacity="1" gorn="0.3.0.0.0.3" xmlns:xml="http://www.w3.org/XML/1998/namespace">
                        <text x="88.710571" style="font-style:normal;font-variant:normal;font-weight:normal;font-stretch:normal;font-size:7.5px;font-family:Droid Sans;-inkscape-font-specification:Droid Sans"  id="tspan9047" y="102.36739" gorn="0.3.0.0.0.3.0">3_Clr</text>
                    </g>
                    <g  transform="matrix(0,1,-1,0,0,0)">
                        <g >
                            <g >
                                <g font-size="3.75" stroke-width="1" fill="#ffffff" stroke="none" style="font-style:normal;font-variant:normal;font-weight:normal;font-stretch:normal;line-height:125%;font-family:Droid Sans;-inkscape-font-specification:Droid Sans;letter-spacing:0px;word-spacing:0px;stroke-linecap:butt;stroke-linejoin:miter;" xml:space="preserve"  id="text9049" stroke-opacity="1" fill-opacity="1" gorn="0.3.0.0.0.4.0.0.0" xmlns:xml="http://www.w3.org/XML/1998/namespace">
                                    <text x="112.92467" style="font-size:5px"  id="tspan9051" y="-102.76639" gorn="0.3.0.0.0.4.0.0.0.0">R1</text>
                                </g>
                            </g>
                        </g>
                    </g>
                    <g  transform="scale(-1,-1)">
                        <g >
                            <g >
                                <g font-size="6.25" stroke-width="1" fill="#ffffff" stroke="none" style="font-style:normal;font-variant:normal;font-weight:normal;font-stretch:normal;line-height:125%;font-family:Droid Sans;-inkscape-font-specification:Droid Sans;letter-spacing:0px;word-spacing:0px;stroke-linecap:butt;stroke-linejoin:miter;" xml:space="preserve"  id="text9053" stroke-opacity="1" fill-opacity="1" gorn="0.3.0.0.0.5.0.0.0" xmlns:xml="http://www.w3.org/XML/1998/namespace">
                                    <text x="-90.229347" style="font-size:6.25px"  id="tspan9055" y="-125.46954" gorn="0.3.0.0.0.5.0.0.0.0">B</text>
                                </g>
                            </g>
                        </g>
                    </g>
                    <g  transform="scale(-1,-1)">
                        <g >
                            <g >
                                <g font-size="6.25" stroke-width="1" fill="#ffffff" stroke="none" style="font-style:normal;font-variant:normal;font-weight:normal;font-stretch:normal;line-height:125%;font-family:Droid Sans;-inkscape-font-specification:Droid Sans;letter-spacing:0px;word-spacing:0px;stroke-linecap:butt;stroke-linejoin:miter;" xml:space="preserve"  id="text9053-0" stroke-opacity="1" fill-opacity="1" gorn="0.3.0.0.0.6.0.0.0" xmlns:xml="http://www.w3.org/XML/1998/namespace">
                                    <text x="-71.549767" style="font-size:6.25px"  id="tspan9055-8" y="-125.46953" gorn="0.3.0.0.0.6.0.0.0.0">R</text>
                                </g>
                            </g>
                        </g>
                    </g>
                    <g  transform="scale(-1,-1)">
                        <g >
                            <g >
                                <g font-size="6.25" stroke-width="1" fill="#ffffff" stroke="none" style="font-style:normal;font-variant:normal;font-weight:normal;font-stretch:normal;line-height:125%;font-family:Droid Sans;-inkscape-font-specification:Droid Sans;letter-spacing:0px;word-spacing:0px;stroke-linecap:butt;stroke-linejoin:miter;" xml:space="preserve"  id="text9053-0-9" stroke-opacity="1" fill-opacity="1" gorn="0.3.0.0.0.7.0.0.0" xmlns:xml="http://www.w3.org/XML/1998/namespace">
                                    <text x="-80.848083" style="font-size:6.25px"  id="tspan9055-8-0" y="-125.46739" gorn="0.3.0.0.0.7.0.0.0.0">G</text>
                                </g>
                            </g>
                        </g>
                    </g>
                    <g  transform="scale(-1,-1)">
                        <g >
                            <g >
                                <g font-size="6.25" stroke-width="1" fill="#ffffff" stroke="none" style="font-style:normal;font-variant:normal;font-weight:normal;font-stretch:normal;line-height:125%;font-family:Droid Sans;-inkscape-font-specification:Droid Sans;letter-spacing:0px;word-spacing:0px;stroke-linecap:butt;stroke-linejoin:miter;" xml:space="preserve"  id="text9053-0-9-4" stroke-opacity="1" fill-opacity="1" gorn="0.3.0.0.0.8.0.0.0" xmlns:xml="http://www.w3.org/XML/1998/namespace">
                                    <text x="-98.354446" style="font-size:6.25px"  id="tspan9055-8-0-9" y="-128.7981" gorn="0.3.0.0.0.8.0.0.0.0">_</text>
                                </g>
                            </g>
                        </g>
                    </g>
                    <g  transform="matrix(0,1,-1,0,0,0)">
                        <g >
                            <g >
                                <g font-size="3.75" stroke-width="1" fill="#ffffff" stroke="none" style="font-style:normal;font-variant:normal;font-weight:normal;font-stretch:normal;line-height:125%;font-family:Droid Sans;-inkscape-font-specification:Droid Sans;letter-spacing:0px;word-spacing:0px;display:inline;stroke-linecap:butt;stroke-linejoin:miter;" xml:space="preserve"  id="text9049-3" stroke-opacity="1" fill-opacity="1" gorn="0.3.0.0.0.9.0.0.0" xmlns:xml="http://www.w3.org/XML/1998/namespace">
                                    <text x="117.1752" style="font-size:5px"  id="tspan9051-0" y="-72.836212" gorn="0.3.0.0.0.9.0.0.0.0">R2</text>
                                </g>
                            </g>
                        </g>
                    </g>
                    <g  transform="matrix(0,1,-1,0,0,0)">
                        <g >
                            <g >
                                <g font-size="3.75" stroke-width="1" fill="#ffffff" stroke="none" style="font-style:normal;font-variant:normal;font-weight:normal;font-stretch:normal;line-height:125%;font-family:Droid Sans;-inkscape-font-specification:Droid Sans;letter-spacing:0px;word-spacing:0px;display:inline;stroke-linecap:butt;stroke-linejoin:miter;" xml:space="preserve"  id="text9049-3-3" stroke-opacity="1" fill-opacity="1" gorn="0.3.0.0.0.10.0.0.0" xmlns:xml="http://www.w3.org/XML/1998/namespace">
                                    <text x="99.856461" style="font-size:5px"  id="tspan9051-0-1" y="-65.526901" gorn="0.3.0.0.0.10.0.0.0.0">R3</text>
                                </g>
                            </g>
                        </g>
                    </g>
                    <rect width="7.7203918" height="15.973452" x="64.383759" stroke-width="1.0629921" fill="none" stroke="#ffffff" style="display:inline;opacity:1;stroke-miterlimit:4;stroke-dasharray:none;" rx="1.7214078e-015"  id="rect8521-7" ry="1.7214078e-015" y="107.0937" stroke-opacity="1" fill-opacity="0.45695364" gorn="0.3.0.0.0.11"/>
                    <rect width="15.639028" height="6.6721988" x="76.89019" stroke-width="1.0629921" fill="none" stroke="#ffffff" style="display:inline;opacity:1;stroke-miterlimit:4;stroke-dasharray:none;" rx="1.7214078e-015"  id="rect8521-7-7" ry="1.7214078e-015" y="117.84042" stroke-opacity="1" fill-opacity="0.45695364" gorn="0.3.0.0.0.12"/>
                    <rect width="7.7203918" height="15.973452" x="93.984383" stroke-width="1.0629921" fill="none" stroke="#ffffff" style="display:inline;opacity:1;stroke-miterlimit:4;stroke-dasharray:none;" rx="1.7214078e-015"  id="rect8521-7-2" ry="1.7214078e-015" y="107.28223" stroke-opacity="1" fill-opacity="0.45695364" gorn="0.3.0.0.0.13"/>
                    <circle cx="85.069664" r="2.3883932" fill="none" stroke-width="1" stroke="#8c8c8c" style="display:inline;" cy="101.69063"  id="path8375-78-6-2-5-4" stroke-opacity="1" fill-opacity="0" gorn="0.3.0.0.0.14"/>
                    <circle cx="80.5187" r="2.3883932" fill="none" stroke-width="1" stroke="#8c8c8c" style="display:inline;" cy="110.01776"  id="path8375-78-6-2-5-7" stroke-opacity="1" fill-opacity="0" gorn="0.3.0.0.0.15"/>
                    <circle cx="89.21315" r="2.3883932" fill="none" stroke-width="1" stroke="#8c8c8c" style="display:inline;" cy="110.03611"  id="path8375-78-6-2-5-4-7" stroke-opacity="1" fill-opacity="0" gorn="0.3.0.0.0.16"/>
                    <circle cx="76.307991" r="2.3883932" fill="none" stroke-width="1" stroke="#8c8c8c" style="display:inline;" cy="101.77951"  id="path8375-78-6-2-5-4-6" stroke-opacity="1" fill-opacity="0" gorn="0.3.0.0.0.17"/>
                    <g  transform="matrix(1.475683,0,0,1.475683,62.68543,106.44821)">
                        <g >
                            <g >
                                <g style="display:inline"  id="_x30_603-res" gorn="0.3.0.0.0.18.0.0.0">
                                    <g  transform="matrix(-1,2.578893e-6,-2.578893e-6,-1,0,0)">
                                        <g >
                                            <g >
                                                <rect width="2.8340001" height="7.9660001" x="-5.3850822" style="fill:#333333"  id="rect976" y="-9.3601303" gorn="0.3.0.0.0.18.0.0.0.0.0.0.0"/>
                                            </g>
                                        </g>
                                    </g>
                                    <g  transform="matrix(-1,2.578893e-6,-2.578893e-6,-1,0,0)">
                                        <g >
                                            <g >
                                                <rect width="0.045000002" height="7.9660001" x="-5.3856859" style="opacity:0.2;fill:#ffffff" enable-background="new    "  id="rect978" y="-9.3596344" gorn="0.3.0.0.0.18.0.0.0.1.0.0.0"/>
                                            </g>
                                        </g>
                                    </g>
                                    <g  transform="matrix(-1,2.578893e-6,-2.578893e-6,-1,0,0)">
                                        <g >
                                            <g >
                                                <rect width="0.030999999" height="7.9660001" x="-2.5829787" style="opacity:0.2" enable-background="new    "  id="rect980" y="-9.3588266" gorn="0.3.0.0.0.18.0.0.0.2.0.0.0"/>
                                            </g>
                                        </g>
                                    </g>
                                    <path style="fill:#dcdcdc"  id="path984" d="m 5.385,8.203 0,0 0,0 0,-0.094 0,0 C 5.135,8.029 4.59,7.974 4.311,7.974 4.02,7.974 2.902,8.022 2.637,8.109 l 0,0 0,0 0,1.224 2.748,0 0,-1.13 z" gorn="0.3.0.0.0.18.0.0.0.3"/>
                                    <path style="fill:#dcdcdc"  id="path986" d="m 5.282,2.639 0.103,0 0,-1.222 -2.748,0 0,1.223 c 0.264,0.088 1.377,0.193 1.672,0.193 0.347,0 0.672,-0.075 0.973,-0.194 z" gorn="0.3.0.0.0.18.0.0.0.4"/>
                                    <path style="fill:#999999"  id="path988" d="m 2.532,9.34 0,-1.224 0.105,-0.007 0,1.224 -0.105,0.007 z" gorn="0.3.0.0.0.18.0.0.0.5"/>
                                    <path style="fill:#999999"  id="path990" d="m 2.531,1.423 0,1.223 0.106,-0.007 0,-1.222 -0.106,0.006 z" gorn="0.3.0.0.0.18.0.0.0.6"/>
                                    <g  transform="matrix(-1,2.578893e-6,-2.578893e-6,-1,0,0)">
                                        <g >
                                            <g >
                                                <rect width="0.045000002" height="1.223" x="-5.3854947" style="opacity:0.5;fill:#ffffff" enable-background="new    "  id="rect992" y="-2.6405256" gorn="0.3.0.0.0.18.0.0.0.7.0.0.0"/>
                                            </g>
                                        </g>
                                    </g>
                                    <g  transform="matrix(-1,2.578893e-6,-2.578893e-6,-1,0,0)">
                                        <g >
                                            <g >
                                                <rect width="0.045000002" height="1.225" x="-5.3858776" style="opacity:0.5;fill:#ffffff" enable-background="new    "  id="rect994" y="-9.3358431" gorn="0.3.0.0.0.18.0.0.0.8.0.0.0"/>
                                            </g>
                                        </g>
                                    </g>
                                    <line y1="2.1549997" style="fill:none" y2="2.1549997"  id="line996" x1="2.5509999" gorn="0.3.0.0.0.18.0.0.0.9" x2="2.5509999"/>
                                    <g  transform="matrix(0,1,-1,0,0,0)">
                                        <g >
                                            <g >
                                                <g font-size="3.75" stroke-width="1" fill="#ffffff" stroke="none" style="font-style:normal;font-variant:normal;font-weight:normal;font-stretch:normal;line-height:125%;font-family:Droid Sans;-inkscape-font-specification:Droid Sans;letter-spacing:0px;word-spacing:0px;display:inline;stroke-linecap:butt;stroke-linejoin:miter;" xml:space="preserve"  id="text9049-3-3-1" stroke-opacity="1" fill-opacity="1" gorn="0.3.0.0.0.18.0.0.0.10.0.0.0" xmlns:xml="http://www.w3.org/XML/1998/namespace">
                                                    <text x="3.5749183" style="font-size:2.29872131px"  id="tspan9051-0-1-6" y="-3.1673505" gorn="0.3.0.0.0.18.0.0.0.10.0.0.0.0">151</text>
                                                </g>
                                            </g>
                                        </g>
                                    </g>
                                </g>
                            </g>
                        </g>
                    </g>
                    <g  transform="matrix(1.475683,0,0,1.475683,92.160362,106.4958)">
                        <g >
                            <g >
                                <g style="display:inline"  id="_x30_603-res-4" gorn="0.3.0.0.0.19.0.0.0">
                                    <g  transform="matrix(-1,2.578893e-6,-2.578893e-6,-1,0,0)">
                                        <g >
                                            <g >
                                                <rect width="2.8340001" height="7.9660001" x="-5.3850822" style="fill:#333333"  id="rect976-2" y="-9.3601313" gorn="0.3.0.0.0.19.0.0.0.0.0.0.0"/>
                                            </g>
                                        </g>
                                    </g>
                                    <g  transform="matrix(-1,2.578893e-6,-2.578893e-6,-1,0,0)">
                                        <g >
                                            <g >
                                                <rect width="0.045000002" height="7.9660001" x="-5.3856859" style="opacity:0.2;fill:#ffffff" enable-background="new    "  id="rect978-1" y="-9.3596344" gorn="0.3.0.0.0.19.0.0.0.1.0.0.0"/>
                                            </g>
                                        </g>
                                    </g>
                                    <g  transform="matrix(-1,2.578893e-6,-2.578893e-6,-1,0,0)">
                                        <g >
                                            <g >
                                                <rect width="0.030999999" height="7.9660001" x="-2.5829787" style="opacity:0.2" enable-background="new    "  id="rect980-2" y="-9.3588276" gorn="0.3.0.0.0.19.0.0.0.2.0.0.0"/>
                                            </g>
                                        </g>
                                    </g>
                                    <path style="fill:#dcdcdc"  id="path984-3" d="m 5.385,8.203 0,0 0,0 0,-0.094 0,0 C 5.135,8.029 4.59,7.974 4.311,7.974 4.02,7.974 2.902,8.022 2.637,8.109 l 0,0 0,0 0,1.224 2.748,0 0,-1.13 z" gorn="0.3.0.0.0.19.0.0.0.3"/>
                                    <path style="fill:#dcdcdc"  id="path986-7" d="m 5.282,2.639 0.103,0 0,-1.222 -2.748,0 0,1.223 c 0.264,0.088 1.377,0.193 1.672,0.193 0.347,0 0.672,-0.075 0.973,-0.194 z" gorn="0.3.0.0.0.19.0.0.0.4"/>
                                    <path style="fill:#999999"  id="path988-8" d="m 2.532,9.34 0,-1.224 0.105,-0.007 0,1.224 -0.105,0.007 z" gorn="0.3.0.0.0.19.0.0.0.5"/>
                                    <path style="fill:#999999"  id="path990-5" d="m 2.531,1.423 0,1.223 0.106,-0.007 0,-1.222 -0.106,0.006 z" gorn="0.3.0.0.0.19.0.0.0.6"/>
                                    <g  transform="matrix(-1,2.578893e-6,-2.578893e-6,-1,0,0)">
                                        <g >
                                            <g >
                                                <rect width="0.045000002" height="1.223" x="-5.3854947" style="opacity:0.5;fill:#ffffff" enable-background="new    "  id="rect992-2" y="-2.6405253" gorn="0.3.0.0.0.19.0.0.0.7.0.0.0"/>
                                            </g>
                                        </g>
                                    </g>
                                    <g  transform="matrix(-1,2.578893e-6,-2.578893e-6,-1,0,0)">
                                        <g >
                                            <g >
                                                <rect width="0.045000002" height="1.225" x="-5.3858776" style="opacity:0.5;fill:#ffffff" enable-background="new    "  id="rect994-5" y="-9.3358431" gorn="0.3.0.0.0.19.0.0.0.8.0.0.0"/>
                                            </g>
                                        </g>
                                    </g>
                                    <line y1="2.1549997" style="fill:none" y2="2.1549997"  id="line996-0" x1="2.5509999" gorn="0.3.0.0.0.19.0.0.0.9" x2="2.5509999"/>
                                    <g  transform="matrix(0,1,-1,0,0,0)">
                                        <g >
                                            <g >
                                                <g font-size="3.75" stroke-width="1" fill="#ffffff" stroke="none" style="font-style:normal;font-variant:normal;font-weight:normal;font-stretch:normal;line-height:125%;font-family:Droid Sans;-inkscape-font-specification:Droid Sans;letter-spacing:0px;word-spacing:0px;display:inline;stroke-linecap:butt;stroke-linejoin:miter;" xml:space="preserve"  id="text9049-3-3-1-6" stroke-opacity="1" fill-opacity="1" gorn="0.3.0.0.0.19.0.0.0.10.0.0.0" xmlns:xml="http://www.w3.org/XML/1998/namespace">
                                                    <text x="3.5749183" style="font-size:2.29872131px"  id="tspan9051-0-1-6-2" y="-3.1673505" gorn="0.3.0.0.0.19.0.0.0.10.0.0.0.0">151</text>
                                                </g>
                                            </g>
                                        </g>
                                    </g>
                                </g>
                            </g>
                        </g>
                    </g>
                    <g  transform="matrix(0,-1.475683,1.475683,0,77.006135,126.8529)">
                        <g >
                            <g >
                                <g style="display:inline"  id="_x30_603-res-9" gorn="0.3.0.0.0.20.0.0.0">
                                    <g  transform="matrix(-1,2.578893e-6,-2.578893e-6,-1,0,0)">
                                        <g >
                                            <g >
                                                <rect width="2.8340001" height="7.9660001" x="-5.3850822" style="fill:#333333"  id="rect976-24" y="-9.3601313" gorn="0.3.0.0.0.20.0.0.0.0.0.0.0"/>
                                            </g>
                                        </g>
                                    </g>
                                    <g  transform="matrix(-1,2.578893e-6,-2.578893e-6,-1,0,0)">
                                        <g >
                                            <g >
                                                <rect width="0.045000002" height="7.9660001" x="-5.3856859" style="opacity:0.2;fill:#ffffff" enable-background="new    "  id="rect978-0" y="-9.3596344" gorn="0.3.0.0.0.20.0.0.0.1.0.0.0"/>
                                            </g>
                                        </g>
                                    </g>
                                    <g  transform="matrix(-1,2.578893e-6,-2.578893e-6,-1,0,0)">
                                        <g >
                                            <g >
                                                <rect width="0.030999999" height="7.9660001" x="-2.5829787" style="opacity:0.2" enable-background="new    "  id="rect980-7" y="-9.3588276" gorn="0.3.0.0.0.20.0.0.0.2.0.0.0"/>
                                            </g>
                                        </g>
                                    </g>
                                    <path style="fill:#dcdcdc"  id="path984-4" d="m 5.385,8.203 0,0 0,0 0,-0.094 0,0 C 5.135,8.029 4.59,7.974 4.311,7.974 4.02,7.974 2.902,8.022 2.637,8.109 l 0,0 0,0 0,1.224 2.748,0 0,-1.13 z" gorn="0.3.0.0.0.20.0.0.0.3"/>
                                    <path style="fill:#dcdcdc"  id="path986-0" d="m 5.282,2.639 0.103,0 0,-1.222 -2.748,0 0,1.223 c 0.264,0.088 1.377,0.193 1.672,0.193 0.347,0 0.672,-0.075 0.973,-0.194 z" gorn="0.3.0.0.0.20.0.0.0.4"/>
                                    <path style="fill:#999999"  id="path988-86" d="m 2.532,9.34 0,-1.224 0.105,-0.007 0,1.224 -0.105,0.007 z" gorn="0.3.0.0.0.20.0.0.0.5"/>
                                    <path style="fill:#999999"  id="path990-7" d="m 2.531,1.423 0,1.223 0.106,-0.007 0,-1.222 -0.106,0.006 z" gorn="0.3.0.0.0.20.0.0.0.6"/>
                                    <g  transform="matrix(-1,2.578893e-6,-2.578893e-6,-1,0,0)">
                                        <g >
                                            <g >
                                                <rect width="0.045000002" height="1.223" x="-5.3854947" style="opacity:0.5;fill:#ffffff" enable-background="new    "  id="rect992-7" y="-2.6405253" gorn="0.3.0.0.0.20.0.0.0.7.0.0.0"/>
                                            </g>
                                        </g>
                                    </g>
                                    <g  transform="matrix(-1,2.578893e-6,-2.578893e-6,-1,0,0)">
                                        <g >
                                            <g >
                                                <rect width="0.045000002" height="1.225" x="-5.3858776" style="opacity:0.5;fill:#ffffff" enable-background="new    "  id="rect994-4" y="-9.3358431" gorn="0.3.0.0.0.20.0.0.0.8.0.0.0"/>
                                            </g>
                                        </g>
                                    </g>
                                    <line y1="2.1549997" style="fill:none" y2="2.1549997"  id="line996-6" x1="2.5509999" gorn="0.3.0.0.0.20.0.0.0.9" x2="2.5509999"/>
                                    <g  transform="matrix(0,1,-1,0,0,0)">
                                        <g >
                                            <g >
                                                <g font-size="3.75" stroke-width="1" fill="#ffffff" stroke="none" style="font-style:normal;font-variant:normal;font-weight:normal;font-stretch:normal;line-height:125%;font-family:Droid Sans;-inkscape-font-specification:Droid Sans;letter-spacing:0px;word-spacing:0px;display:inline;stroke-linecap:butt;stroke-linejoin:miter;" xml:space="preserve"  id="text9049-3-3-1-2" stroke-opacity="1" fill-opacity="1" gorn="0.3.0.0.0.20.0.0.0.10.0.0.0" xmlns:xml="http://www.w3.org/XML/1998/namespace">
                                                    <text x="3.5749183" style="font-size:2.29872131px"  id="tspan9051-0-1-6-1" y="-3.1673505" gorn="0.3.0.0.0.20.0.0.0.10.0.0.0.0">151</text>
                                                </g>
                                            </g>
                                        </g>
                                    </g>
                                </g>
                            </g>
                        </g>
                    </g>
                    <circle r="1.9482363" cx="76.307991" stroke-width="1.0629921" fill="#c1c1c1" stroke="none" style="stroke-miterlimit:4;stroke-dasharray:none;" cy="101.77951"  id="path4526-0-8" stroke-opacity="1" fill-opacity="1" gorn="0.3.0.0.0.21"/>
                    <circle r="1.9482363" cx="85.069664" stroke-width="1.0629921" fill="#c1c1c1" stroke="none" style="stroke-miterlimit:4;stroke-dasharray:none;" cy="101.69063"  id="path4526-0-8-6" stroke-opacity="1" fill-opacity="1" gorn="0.3.0.0.0.22"/>
                    <circle r="1.9482363" cx="80.5187" stroke-width="1.0629921" fill="#c1c1c1" stroke="none" style="stroke-miterlimit:4;stroke-dasharray:none;" cy="110.01776"  id="path4526-0-8-9" stroke-opacity="1" fill-opacity="1" gorn="0.3.0.0.0.23"/>
                    <circle r="1.9482363" cx="89.21315" stroke-width="1.0629921" fill="#c1c1c1" stroke="none" style="stroke-miterlimit:4;stroke-dasharray:none;" cy="110.0361"  id="path4526-0-8-8" stroke-opacity="1" fill-opacity="1" gorn="0.3.0.0.0.24"/>
                    <g  transform="matrix(1.25,0,0,1.25,68.769387,82.531017)">
                        <g >
                            <g >
                                <g  id="rgbled" gorn="0.3.0.0.0.25.0.0.0">
                                    <path style="opacity:0.63800001;fill:#e6e6e6"  id="path5461" d="m 19.133,13.176 0,-5.992 C 19.133,3.216 15.916,0 11.948,0 7.982,0 4.765,3.216 4.765,7.184 l 0,13.834 c 1.5,1.674 4.153,2.789 7.184,2.789 4.687,0 8.48,-2.658 8.48,-5.938 l 0,-1.547 c 0.003,-1.155 -0.479,-2.233 -1.296,-3.146 z" gorn="0.3.0.0.0.25.0.0.0.0"/>
                                    <path style="opacity:0.93300003;fill:#d1d1d1"  id="path5463" d="m 19.133,13.176 0,3.146 c 0,2.777 -3.217,5.029 -7.185,5.029 -3.966,0 -7.184,-2.252 -7.184,-5.029 l 0,3.148 0,1.547 c 1.5,1.672 4.153,2.789 7.184,2.789 4.687,0 8.48,-2.658 8.48,-5.938 l 0,-1.546 c 0.004,-1.155 -0.478,-2.233 -1.295,-3.146 z" gorn="0.3.0.0.0.25.0.0.0.1"/>
                                    <path style="opacity:0.23999999"  id="path5465" d="m 19.133,13.176 0,3.146 c 0,2.777 -3.217,5.029 -7.185,5.029 -3.966,0 -7.184,-2.252 -7.184,-5.029 l 0,3.148 c 1.5,1.674 4.153,2.789 7.184,2.789 4.687,0 8.48,-2.658 8.48,-5.938 0.004,-1.154 -0.478,-2.232 -1.295,-3.145 z" gorn="0.3.0.0.0.25.0.0.0.2"/>
                                    <ellipse cx="11.95" style="opacity:0.82399998;fill:#cccccc" rx="7.1830001" cy="16.323"  id="ellipse5467" ry="5.0289998" gorn="0.3.0.0.0.25.0.0.0.3"/>
                                    <polygon style="fill:#999999"  id="polygon5469" points="15.978,16.325 16.903,16.325 16.903,8.637 15.692,8.637 16.133,9.153 12.981,12.518 15.978,12.518 15.978,13.268 " gorn="0.3.0.0.0.25.0.0.0.4"/>
                                    <polygon style="fill:#999999"  id="polygon5471" points="12.223,9.796 10.278,9.796 9.772,8.921 8.22,8.921 6.999,9.776 6.999,16.325 8.865,16.323 8.865,12.518 11.563,12.518 14.916,8.921 12.729,8.921 " gorn="0.3.0.0.0.25.0.0.0.5"/>
                                    <path style="opacity:0.6;fill:#ffffff"  id="path5473" d="M 15.295,3.801 16.754,3.524 C 15.905,2.375 14.646,1.538 13.166,1.253 l 0.252,1.097 c 0.776,0.275 1.428,0.791 1.877,1.451 z" gorn="0.3.0.0.0.25.0.0.0.6"/>
                                    <path style="opacity:0.6;fill:#ffffff"  id="path5475" d="m 5.545,20.196 0,1.546 c 0.66,0.536 1.447,0.989 2.34,1.334 l 0,-1.548 C 6.992,21.186 6.205,20.731 5.545,20.196 Z" gorn="0.3.0.0.0.25.0.0.0.7"/>
                                    <path style="opacity:0.6;fill:#ffffff"  id="path5477" d="m 15.987,20.481 c -0.264,0.125 -0.537,0.233 -0.821,0.334 -0.06,0.021 -0.119,0.041 -0.181,0.062 -0.569,0.188 -1.184,0.321 -1.821,0.397 -0.076,0.011 -0.154,0.019 -0.23,0.025 -0.321,0.03 -0.647,0.053 -0.983,0.053 -0.148,0 -0.312,-0.01 -0.478,-0.024 C 10.25,21.27 9.111,21.011 8.129,20.578 l 0,-8.507 0,-4.887 c 0,-1.49 0.86,-2.766 2.104,-3.396 L 10.212,3.737 8.946,2.203 C 7.257,3.223 6.115,5.065 6.115,7.182 l 0,12.068 C 6.066,19.201 5.802,18.938 5.63,18.716 l -0.312,0.699 c 1.426,1.503 3.861,2.497 6.632,2.497 1.703,0 3.277,-0.379 4.572,-1.019 l -0.531,-0.412 c -0.004,0 -0.004,0 -0.004,0 z" gorn="0.3.0.0.0.25.0.0.0.8"/>
                                </g>
                            </g>
                        </g>
                    </g>
                    <g  transform="translate(0,2.2513854)">
                        <g >
                            <g >
                                <g  id="g8789" gorn="0.3.0.0.0.26.0.0.0">
                                    <rect width="37.509552" height="9.5631208" x="66.376328" stroke-width="1.0629921" fill="none" stroke="#ffffff" style="opacity:1;stroke-miterlimit:4;stroke-dasharray:none;" rx="1.7214078e-015"  id="rect8521" ry="1.7214078e-015" y="128.54326" stroke-opacity="1" fill-opacity="0.45695364" gorn="0.3.0.0.0.26.0.0.0.0"/>
                                    <circle cx="80.573257" r="2.3883932" fill="none" stroke-width="1" stroke="#8c8c8c" style="display:inline;" cy="133.32481"  id="path8375-78-6" stroke-opacity="1" fill-opacity="0" gorn="0.3.0.0.0.26.0.0.0.1"/>
                                    <circle cx="89.338043" r="2.3883932" fill="#2e2e2e" stroke-width="1" stroke="#8c8c8c" style="display:inline;" cy="133.32481"  id="path8375-3-9" stroke-opacity="1" fill-opacity="0" gorn="0.3.0.0.0.26.0.0.0.2"/>
                                    <path stroke-width="1.29999995" fill="#2e2e2e" stroke="#8c8c8c" style="display:inline;stroke-miterlimit:4;stroke-dasharray:none;"  id="path8375-3-0-2" d="m 100.49122,133.39179 a 2.388393,2.3883932 0 0 1 -2.388398,2.38839 2.388393,2.3883932 0 0 1 -2.38839,-2.38839 2.388393,2.3883932 0 0 1 2.38839,-2.3884 2.388393,2.3883932 0 0 1 2.388398,2.3884 z m -4.977678,-2.67858 5.178578,0 c 0,0 0,0 0,0 l 0,5.22322 c 0,0 0,0 0,0 l -5.178578,0 c 0,0 0,0 0,0 l 0,-5.22322 c 0,0 0,0 0,0 z" stroke-opacity="1" fill-opacity="0" gorn="0.3.0.0.0.26.0.0.0.3"/>
                                    <circle cx="71.808479" r="2.3883932" fill="none" stroke-width="1" stroke="#8c8c8c" style="display:inline;" cy="133.32481"  id="path8375-78-6-2" stroke-opacity="1" fill-opacity="0" gorn="0.3.0.0.0.26.0.0.0.4"/>
                                </g>
                            </g>
                        </g>
                    </g>
                    <g  transform="translate(-0.149244,-0.46668265)">
                        <g >
                            <g >
                                <g  id="g8722" gorn="0.3.0.0.0.27.0.0.0">
                                    <g  transform="matrix(1.2440783,0,0,1.2440783,-128.636,125.98618)">
                                        <g >
                                            <g >
                                                <polygon style="display:inline;fill:#404040"  id="polygon9525-9" points="170.389,11.588 171.949,10.056 171.949,6.061 170.389,4.526 166.327,4.526 166.327,4.526 164.766,6.061 164.766,10.056 166.327,11.588 " gorn="0.3.0.0.0.27.0.0.0.0.0.0.0"/>
                                            </g>
                                        </g>
                                    </g>
                                    <g  transform="matrix(1.2440783,0,0,1.2440783,-119.70011,125.98618)">
                                        <g >
                                            <g >
                                                <polygon style="display:inline;fill:#404040"  id="polygon9525-7" points="164.766,6.061 164.766,10.056 166.327,11.588 170.389,11.588 171.949,10.056 171.949,6.061 170.389,4.526 166.327,4.526 166.327,4.526 " gorn="0.3.0.0.0.27.0.0.0.1.0.0.0"/>
                                            </g>
                                        </g>
                                    </g>
                                    <g  transform="matrix(1.2440783,0,0,1.2440783,-110.76422,125.98618)">
                                        <g >
                                            <g >
                                                <polygon style="display:inline;fill:#404040"  id="polygon9525-0" points="164.766,6.061 164.766,10.056 166.327,11.588 170.389,11.588 171.949,10.056 171.949,6.061 170.389,4.526 166.327,4.526 166.327,4.526 " gorn="0.3.0.0.0.27.0.0.0.2.0.0.0"/>
                                            </g>
                                        </g>
                                    </g>
                                    <g  transform="matrix(1.2440783,0,0,1.2440783,-137.57491,125.98618)">
                                        <g >
                                            <g >
                                                <polygon style="display:inline;fill:#404040"  id="polygon9525-9-7" points="164.766,10.056 166.327,11.588 170.389,11.588 171.949,10.056 171.949,6.061 170.389,4.526 166.327,4.526 166.327,4.526 164.766,6.061 " gorn="0.3.0.0.0.27.0.0.0.3.0.0.0"/>
                                            </g>
                                        </g>
                                    </g>
                                </g>
                            </g>
                        </g>
                    </g>
                    <rect width="1.5093021" height="26.979361" x="70.9711" stroke-width="1.19069779" fill="#8c8c8c" stroke="#8c8c8c" style="display:inline;opacity:1;stroke-miterlimit:4;stroke-dasharray:none;" rx="8.7117614e-016"  id="connector0pin" ry="8.7117614e-016" y="135.51831" stroke-opacity="1" fill-opacity="1" gorn="0.3.0.0.0.28"/>
                    <rect width="1.5093021" height="26.979361" x="79.910011" stroke-width="1.19069779" fill="#8c8c8c" stroke="#8c8c8c" style="display:inline;opacity:1;stroke-miterlimit:4;stroke-dasharray:none;" rx="8.7117614e-016"  ry="8.7117614e-016" y="135.51831" stroke-opacity="1" fill-opacity="1"/>
                    <rect width="1.5093021" height="26.979361" x="88.951065" stroke-width="1.19069779" fill="#8c8c8c" stroke="#8c8c8c" style="display:inline;opacity:1;stroke-miterlimit:4;stroke-dasharray:none;" rx="8.7117614e-016"  ry="8.7117614e-016" y="135.5183" stroke-opacity="1" fill-opacity="1"/>
                    <rect width="1.5093021" height="26.979361" x="97.951073" stroke-width="1.19069779" fill="#8c8c8c" stroke="#8c8c8c" style="display:inline;opacity:1;stroke-miterlimit:4;stroke-dasharray:none;" rx="8.7117614e-016"  ry="8.7117614e-016" y="135.5183" stroke-opacity="1" fill-opacity="1"/>
                    <g  transform="translate(-59.593883,-101.48226)">
                        <g >
                            <g >
                                <g style="display:inline"  id="connector1pin" gorn="0.3.0.0.0.32.0.0.0">
                                    <rect width="1.6205368" height="0.16069429" x="130.50937" stroke-width="1.07946324" fill="#1a1a1a" stroke="#c1c1c1" style="opacity:1;stroke-miterlimit:4;stroke-dasharray:none;" rx="9.9289509e-016"  id="rect8209-8-1" ry="9.9289509e-016" y="236.94495" stroke-opacity="1" fill-opacity="1" gorn="0.3.0.0.0.32.0.0.0.0"/>
                                    <rect width="1.8914231" height="0.077249847" x="130.37837" stroke-width="0.80857694" fill="#1a1a1a" stroke="#c1c1c1" style="opacity:1;stroke-miterlimit:4;stroke-dasharray:none;" rx="1.1588659e-015"  id="rect8209-6-1-5" ry="1.1588659e-015" y="264.06503" stroke-opacity="1" fill-opacity="1" gorn="0.3.0.0.0.32.0.0.0.1"/>
                                </g>
                                <rect width="0.00540889" height="0.0562827" fill="none" stroke-width="0" x="131.319" stroke="none"  id="connector1terminal" y="264.518" gorn="0.3.0.0.0.32.0.0.1"/>
                            </g>
                        </g>
                    </g>
                    <g  transform="translate(-50.654975,-101.48226)">
                        <g >
                            <g >
                                <g style="display:inline"  id="connector2pin" gorn="0.3.0.0.0.33.0.0.0">
                                    <rect width="1.6205368" height="0.16069429" x="130.50937" stroke-width="1.07946324" fill="#1a1a1a" stroke="#c1c1c1" style="opacity:1;stroke-miterlimit:4;stroke-dasharray:none;" rx="9.9289509e-016"  id="rect8209-8" ry="9.9289509e-016" y="236.94495" stroke-opacity="1" fill-opacity="1" gorn="0.3.0.0.0.33.0.0.0.0"/>
                                    <rect width="1.8914231" height="0.077249847" x="130.37837" stroke-width="0.80857694" fill="#1a1a1a" stroke="#c1c1c1" style="opacity:1;stroke-miterlimit:4;stroke-dasharray:none;" rx="1.1588659e-015"  id="rect8209-6-1" ry="1.1588659e-015" y="264.06503" stroke-opacity="1" fill-opacity="1" gorn="0.3.0.0.0.33.0.0.0.1"/>
                                </g>
                                <rect width="0.00540889" height="0.0562827" fill="none" stroke-width="0" x="131.319" stroke="none"  id="connector2terminal" y="264.518" gorn="0.3.0.0.0.33.0.0.1"/>
                            </g>
                        </g>
                    </g>
                    <g  transform="translate(-50.371715,-101.30587)">
                        <g >
                            <g >
                                <g style="display:inline"  id="connector3pin" gorn="0.3.0.0.0.34.0.0.0">
                                    <rect width="1.6205368" height="0.16069429" x="139.26717" stroke-width="1.07946324" fill="#1a1a1a" stroke="#c1c1c1" style="opacity:1;stroke-miterlimit:4;stroke-dasharray:none;" rx="9.9289509e-016"  id="rect8209-0-6" ry="9.9289509e-016" y="236.76855" stroke-opacity="1" fill-opacity="1" gorn="0.3.0.0.0.34.0.0.0.0"/>
                                    <rect width="1.8914231" height="0.077249847" x="139.13617" stroke-width="0.80857694" fill="#1a1a1a" stroke="#c1c1c1" style="opacity:1;stroke-miterlimit:4;stroke-dasharray:none;" rx="1.1588659e-015"  id="rect8209-6-9-1" ry="1.1588659e-015" y="263.88864" stroke-opacity="1" fill-opacity="1" gorn="0.3.0.0.0.34.0.0.0.1"/>
                                </g>
                                <rect width="0.00540889" height="0.0562827" fill="none" stroke-width="0" x="140.077" stroke="none"  id="connector3terminal" y="264.342" gorn="0.3.0.0.0.34.0.0.1"/>
                            </g>
                        </g>
                    </g>
                    <g  transform="translate(-41.371714,-101.30587)">
                        <g >
                            <g >
                                <g style="display:inline"  id="connector4pin" gorn="0.3.0.0.0.35.0.0.0">
                                    <rect width="1.6205368" height="0.16069429" x="139.26717" stroke-width="1.07946324" fill="#1a1a1a" stroke="#c1c1c1" style="opacity:1;stroke-miterlimit:4;stroke-dasharray:none;" rx="9.9289509e-016"  id="rect8209-0-6-7" ry="9.9289509e-016" y="236.76855" stroke-opacity="1" fill-opacity="1" gorn="0.3.0.0.0.35.0.0.0.0"/>
                                    <rect width="1.8914231" height="0.077249847" x="139.13617" stroke-width="0.80857694" fill="#1a1a1a" stroke="#c1c1c1" style="opacity:1;stroke-miterlimit:4;stroke-dasharray:none;" rx="1.1588659e-015"  id="rect8209-6-9-1-7" ry="1.1588659e-015" y="263.88864" stroke-opacity="1" fill-opacity="1" gorn="0.3.0.0.0.35.0.0.0.1"/>
                                </g>
                                <rect width="0.00540889" height="0.0562827" fill="none" stroke-width="0" x="140.077" stroke="none"  id="connector4terminal" y="264.342" gorn="0.3.0.0.0.35.0.0.1"/>
                            </g>
                        </g>
                    </g>
                </g>
            </g>
        </g>
    </g>
</svg>
